# xmcd
#
# Track frame offsets:
#	150
#	13879
#	26654
#	39584
#	54834
#	69629
#	82916
#	98205
#	113320
#	128964
#	145464
#	157207
#	172621
#	187087
#	200029
#	214170
#	229163
#	242648
#	259112
#	272356
#	284659
#	300779
#	314309
#
# Disc length: 4341 seconds
#
# Revision: 1
# Processed by: cddbd v1.5PL3 Copyright (c) Steve Scherf et al.
# Submitted via: EasyCDDAExtractor 6.2.0.3
#
DISCID=4210f317
DTITLE=Sertanejos Boêmios - Os maiores Sucessos
DYEAR=2004
DGENRE=Sertanejo
TTITLE0=A Noite Do Nosso Amor - Cezar and Paulinho
TTITLE1=Espuma Da Cerveja - Gian and Giovane
TTITLE2=Minha Serenata - Chico Rey and Paraná
TTITLE3=Toalha de Banho - Bobo e Robson
TTITLE4=Parede e Meia - Trio Parada Dura
TTITLE5=Fio de Cabelo - Chitãozinho e Xororó
TTITLE6=Jogo do Amor - Milionario e José Rico
TTITLE7=Boate Azul - Joaquim e Manoel
TTITLE8=Biquini Preto - Duduca e Dalvan
TTITLE9=A dois Graus - Alan e Aladin
TTITLE10=Do Outro Lado da Cidade - Lean e Rangel
TTITLE11=Garçon - Reginaldo Rossi
TTITLE12=Ninguem quis Dormir - Chitãozinho e Xororo
TTITLE13=Nosso Amor - Bob e Robinson
TTITLE14=Condenado por Amor - Bob e Robinson
TTITLE15=Livro da Vida - MIlionario e Jose Rico
TTITLE16=Vestido de Seda - Teodoro e Sampaio
TTITLE17=Roupa de Lua de Mel - Gian e Giovani
TTITLE18=Esta Noite Como Lembrança - João Mineiro e Marciano
TTITLE19=Palhaço de Circo - Peão e Andorinha
TTITLE20=Loira do Carro Branco - João Paulo e Daniel
TTITLE21=Meu Companheiro - Alan e Aladin
TTITLE22=Whiky com Gelo - Jão Mineiro e Marciano
EXTD=
EXTT0=
EXTT1=
EXTT2=
EXTT3=
EXTT4=
EXTT5=
EXTT6=
EXTT7=
EXTT8=
EXTT9=
EXTT10=
EXTT11=
EXTT12=
EXTT13=
EXTT14=
EXTT15=
EXTT16=
EXTT17=
EXTT18=
EXTT19=
EXTT20=
EXTT21=
EXTT22=
PLAYORDER=
